<svg xmlns="http://www.w3.org/2000/svg" viewBox="0 0 800 450" width="800" height="450" role="img">
<defs>
<linearGradient id="sky" x1="0" y1="0" x2="0" y2="1">
<stop offset="0" stop-color="#ffffff"/><stop offset="1" stop-color="#eef3f7"/>
</linearGradient>
<linearGradient id="water" x1="0" y1="0" x2="0" y2="1">
<stop offset="0" stop-color="#14456f"/><stop offset="1" stop-color="#1d5480"/>
</linearGradient>
</defs>
<rect width="800" height="196" fill="url(#sky)"/><path d="M0 196 L0 182 Q 400 170 800 180 L800 196 Z" fill="#0b2c4d" opacity=".55"/><rect y="196" width="800" height="254" fill="url(#water)"/><rect x="44" y="222" width="100" height="2.5" rx="1.25" fill="#ffffff" opacity="0.10"/><rect x="240" y="247" width="139" height="2.5" rx="1.25" fill="#ffffff" opacity="0.12"/><rect x="467" y="272" width="159" height="2.5" rx="1.25" fill="#ffffff" opacity="0.14"/><rect x="501" y="297" width="174" height="2.5" rx="1.25" fill="#ffffff" opacity="0.10"/><rect x="51" y="322" width="197" height="2.5" rx="1.25" fill="#ffffff" opacity="0.12"/><rect x="365" y="346" width="218" height="2.5" rx="1.25" fill="#ffffff" opacity="0.14"/><rect x="31" y="371" width="258" height="2.5" rx="1.25" fill="#ffffff" opacity="0.10"/><rect x="205" y="396" width="307" height="2.5" rx="1.25" fill="#ffffff" opacity="0.12"/><rect x="403" y="421" width="294" height="2.5" rx="1.25" fill="#ffffff" opacity="0.14"/><circle cx="503" cy="274" r="2.3" fill="#c0812f"/><g transform="translate(538.0,270.0)"><path d="M-11.2 -6.4 h17.3 l-2.4 -6.6 h-12.2 Z" fill="#ffffff" opacity=".92"/><path d="M-20.4 -5.4 h40.7 l-5.4 10.2 h-30.0 Z" fill="#ffffff"/><path d="M-20.4 -3.6 h40.7 l-0.9 1.9 h-38.9 Z" fill="#deb887" opacity=".85"/></g><circle cx="429" cy="385" r="3.1" fill="#c0812f"/><g transform="translate(477.0,381.0)"><path d="M0 -9.5 L0 -50.7 L21.6 -11.5 Z" fill="#ffffff" opacity=".92"/><line x1="0" y1="-9.5" x2="0" y2="-52.3" stroke="#dbe4ec" stroke-width="1.3"/><path d="M-28.2 -7.5 h56.5 l-7.5 14.2 h-41.5 Z" fill="#ffffff"/><path d="M-28.2 -5.0 h56.5 l-1.2 2.7 h-54.0 Z" fill="#deb887" opacity=".85"/></g><circle cx="626" cy="339" r="2.8" fill="#c0812f"/><g transform="translate(668.0,335.0)"><path d="M-13.7 -7.6 h21.2 l-2.9 -8.1 h-15.0 Z" fill="#ffffff" opacity=".92"/><path d="M-24.9 -6.6 h49.8 l-6.6 12.5 h-36.7 Z" fill="#ffffff"/><path d="M-24.9 -4.4 h49.8 l-1.1 2.3 h-47.6 Z" fill="#deb887" opacity=".85"/></g><circle cx="313" cy="304" r="2.5" fill="#c0812f"/><g transform="translate(351.0,300.0)"><path d="M0 -7.9 L0 -39.7 L16.9 -9.9 Z" fill="#ffffff" opacity=".92"/><line x1="0" y1="-7.9" x2="0" y2="-41.0" stroke="#dbe4ec" stroke-width="1.0"/><path d="M-22.1 -5.9 h44.2 l-5.9 11.1 h-32.5 Z" fill="#ffffff"/><path d="M-22.1 -3.9 h44.2 l-1.0 2.1 h-42.3 Z" fill="#deb887" opacity=".85"/></g><circle cx="187" cy="361" r="3.3" fill="#c0812f"/><g transform="translate(238.0,357.0)"><path d="M-16.5 -8.9 h25.5 l-3.5 -9.7 h-18.0 Z" fill="#ffffff" opacity=".92"/><path d="M-30.0 -7.9 h59.9 l-7.9 15.1 h-44.1 Z" fill="#ffffff"/><path d="M-30.0 -5.3 h59.9 l-1.3 2.8 h-57.3 Z" fill="#deb887" opacity=".85"/></g><circle cx="101" cy="272" r="1.8" fill="#c0812f"/><g transform="translate(129.0,268.0)"><path d="M0 -6.3 L0 -29.4 L12.5 -8.3 Z" fill="#ffffff" opacity=".92"/><line x1="0" y1="-6.3" x2="0" y2="-30.4" stroke="#dbe4ec" stroke-width="0.8"/><path d="M-16.4 -4.3 h32.8 l-4.3 8.3 h-24.1 Z" fill="#ffffff"/><path d="M-16.4 -2.9 h32.8 l-0.7 1.5 h-31.4 Z" fill="#deb887" opacity=".85"/></g>
</svg>